<?xml version="1.0" standalone="no"?>
<!DOCTYPE svg PUBLIC "-//W3C//DTD SVG 20010904//EN"
 "http://www.w3.org/TR/2001/REC-SVG-20010904/DTD/svg10.dtd">
<svg version="1.0" xmlns="http://www.w3.org/2000/svg"
 width="485.000000pt" height="485.000000pt" viewBox="0 0 485.000000 485.000000"
 preserveAspectRatio="xMidYMid meet">
<metadata>
Created by potrace 1.14, written by Peter Selinger 2001-2017
</metadata>
<g transform="translate(0.000000,485.000000) scale(0.100000,-0.100000)"
fill="#000000" stroke="none">
<path d="M1470 3366 c0 -2 68 -116 152 -253 83 -136 241 -396 350 -577 110
-181 205 -338 213 -348 11 -17 20 -5 89 127 42 80 76 153 76 160 0 8 -119 211
-264 452 l-265 438 -175 3 c-97 1 -176 0 -176 -2z"/>
<path d="M2090 3356 c0 -8 94 -164 208 -347 114 -184 277 -448 362 -587 l154
-253 80 158 79 159 -269 442 -269 441 -172 1 c-141 0 -173 -3 -173 -14z"/>
<path d="M1940 1755 c0 -158 1 -165 20 -165 11 0 20 7 20 15 0 12 7 11 40 -6
55 -29 98 -20 140 28 30 34 32 40 28 96 -4 52 -9 64 -36 88 -41 37 -105 40
-146 8 l-26 -20 0 60 c0 54 -2 61 -20 61 -19 0 -20 -7 -20 -165z m170 35 c30
-16 46 -81 29 -116 -28 -58 -104 -67 -137 -17 -51 79 28 176 108 133z"/>
<path d="M3470 1755 c0 -158 1 -165 20 -165 17 0 20 7 20 53 l1 52 48 -53 c39
-44 52 -53 75 -50 l27 3 -50 57 c-28 31 -51 60 -51 65 0 5 23 31 50 58 28 27
50 53 50 57 0 4 -12 8 -27 8 -21 -1 -38 -13 -68 -50 -22 -28 -43 -50 -47 -50
-5 0 -8 41 -8 90 0 83 -1 90 -20 90 -19 0 -20 -7 -20 -165z"/>
<path d="M1200 1894 c0 -4 19 -74 41 -155 40 -143 43 -149 68 -149 25 0 28 6
62 122 l35 121 35 -119 c33 -111 37 -119 61 -122 24 -3 28 2 37 35 6 21 26 91
45 156 l34 117 -24 0 c-25 0 -31 -13 -72 -180 l-18 -75 -32 116 c-18 64 -32
121 -32 128 0 6 -13 11 -29 11 -28 0 -29 -2 -62 -120 -19 -66 -36 -120 -40
-120 -3 0 -18 54 -34 120 -27 110 -31 120 -52 120 -13 0 -23 -3 -23 -6z"/>
<path d="M1714 1830 c-62 -25 -86 -130 -45 -196 37 -60 133 -69 185 -17 50 50
19 74 -36 28 -16 -14 -41 -25 -54 -25 -25 0 -74 40 -74 59 0 6 40 11 98 13
l97 3 3 27 c9 81 -90 142 -174 108z m106 -50 c39 -39 27 -50 -55 -50 -41 0
-75 4 -75 9 0 4 9 20 21 35 26 33 79 36 109 6z"/>
<path d="M2220 1834 c0 -3 16 -33 36 -65 l37 -59 -37 -55 c-20 -30 -36 -57
-36 -60 0 -3 9 -5 20 -5 12 0 30 16 47 41 30 46 24 47 73 -22 10 -13 23 -20
38 -17 21 3 21 5 -17 62 l-40 59 28 41 c15 23 33 51 40 64 11 20 9 22 -11 22
-17 0 -30 -12 -49 -46 l-26 -47 -32 47 c-20 28 -40 46 -51 46 -11 0 -20 -3
-20 -6z"/>
<path d="M2476 1819 c-30 -24 -34 -63 -9 -91 9 -10 40 -25 69 -34 57 -16 72
-35 48 -59 -21 -21 -61 -19 -81 5 -10 11 -28 20 -40 20 -23 0 -23 -1 -8 -29
28 -54 122 -65 165 -18 43 45 13 96 -66 116 -47 12 -71 40 -52 59 19 19 66 14
80 -8 7 -11 23 -20 35 -20 26 0 27 1 12 33 -22 49 -106 63 -153 26z"/>
<path d="M2690 1655 l0 -185 25 0 c24 0 25 2 25 75 l0 74 35 -20 c93 -55 201
48 165 156 -24 73 -102 105 -170 70 -27 -14 -30 -14 -30 0 0 9 -9 15 -25 15
l-25 0 0 -185z m185 120 c36 -35 34 -88 -4 -126 -32 -31 -50 -35 -84 -17 -34
18 -46 39 -47 81 0 48 35 87 80 87 19 0 40 -9 55 -25z"/>
<path d="M3037 1822 c-36 -22 -62 -89 -52 -138 15 -80 103 -125 170 -85 28 16
35 17 35 6 0 -9 10 -15 25 -15 l25 0 0 125 0 125 -25 0 c-16 0 -25 -6 -25 -15
0 -14 -3 -14 -30 0 -38 20 -88 19 -123 -3z m128 -47 c36 -35 34 -88 -4 -126
-32 -31 -50 -35 -84 -17 -34 18 -46 39 -47 81 0 48 35 87 80 87 19 0 40 -9 55
-25z"/>
<path d="M3300 1715 l0 -125 25 0 c25 0 25 1 25 83 0 91 10 114 50 119 17 2
26 10 28 26 4 27 -22 30 -56 6 -20 -14 -22 -14 -22 0 0 10 -9 16 -25 16 l-25
0 0 -125z"/>
</g>
</svg>
